<?xml version="1.0" encoding="UTF-8" standalone="no"?>
<!-- Created with Inkscape (http://www.inkscape.org/) -->

<svg
   xmlns:dc="http://purl.org/dc/elements/1.1/"
   xmlns:cc="http://creativecommons.org/ns#"
   xmlns:rdf="http://www.w3.org/1999/02/22-rdf-syntax-ns#"
   xmlns:svg="http://www.w3.org/2000/svg"
   xmlns="http://www.w3.org/2000/svg"
   xmlns:sodipodi="http://sodipodi.sourceforge.net/DTD/sodipodi-0.dtd"
   xmlns:inkscape="http://www.inkscape.org/namespaces/inkscape"
   width="744.09448819"
   height="1052.3622047"
   id="svg2"
   version="1.1"
   inkscape:version="0.48.2 r9819"
   sodipodi:docname="guacamayo.svg">
  <defs
     id="defs4" />
  <sodipodi:namedview
     id="base"
     pagecolor="#ffffff"
     bordercolor="#666666"
     borderopacity="1.0"
     inkscape:pageopacity="0.0"
     inkscape:pageshadow="2"
     inkscape:zoom="0.70710678"
     inkscape:cx="454.26443"
     inkscape:cy="718.93297"
     inkscape:document-units="px"
     inkscape:current-layer="layer1"
     showgrid="false"
     inkscape:window-width="1362"
     inkscape:window-height="724"
     inkscape:window-x="0"
     inkscape:window-y="0"
     inkscape:window-maximized="1" />
  <metadata
     id="metadata7">
    <rdf:RDF>
      <cc:Work
         rdf:about="">
        <dc:format>image/svg+xml</dc:format>
        <dc:type
           rdf:resource="http://purl.org/dc/dcmitype/StillImage" />
        <dc:title></dc:title>
      </cc:Work>
    </rdf:RDF>
  </metadata>
  <g
     inkscape:label="Layer 1"
     inkscape:groupmode="layer"
     id="layer1">
    <path
       inkscape:connector-curvature="0"
       style="fill:#000000;fill-opacity:1"
       d=""
       id="path3614" />
    <rect
       y="21.214996"
       x="22.531963"
       height="300"
       width="700"
       id="rect4259"
       style="fill:#ffffff;fill-opacity:1;stroke:none"
       inkscape:export-filename="/Users/hbons/Desktop/guacamayo-logo.png"
       inkscape:export-xdpi="90"
       inkscape:export-ydpi="90" />
    <g
       id="g4221"
       transform="translate(24.644938,-27.016857)">
      <flowRoot
         transform="matrix(1.9308552,0,0,1.9308552,62.617149,-338.60719)"
         style="font-size:40px;font-style:normal;font-variant:normal;font-weight:normal;font-stretch:normal;line-height:125%;letter-spacing:0px;word-spacing:0px;fill:#000000;fill-opacity:1;stroke:none;font-family:Londrina Solid;-inkscape-font-specification:Londrina Solid"
         id="flowRoot2985"
         xml:space="preserve"><flowRegion
           id="flowRegion2987"><rect
             style="font-style:normal;font-variant:normal;font-weight:normal;font-stretch:normal;font-family:Londrina Solid;-inkscape-font-specification:Londrina Solid"
             y="252.36218"
             x="85.714287"
             height="242.85715"
             width="657.14288"
             id="rect2989" /></flowRegion><flowPara
           id="flowPara2991">GUACAMAYO</flowPara></flowRoot>      <path
         sodipodi:nodetypes="sccssccscsscccccs"
         inkscape:connector-curvature="0"
         id="rect2993"
         d="m 160.32257,182.0141 c -5.41261,0 -9.74058,5.80766 -9.8539,12.86912 l -0.57764,30.48735 c -0.11333,7.06148 5.01893,11.64673 10.43154,11.64673 l 47.80841,0 c 5.41261,0 9.72032,-5.80818 9.85391,-12.86912 l 0.6456,-30.4534 c 0.13359,-7.06094 -5.0869,-11.68068 -10.49951,-11.68068 l -12.71031,0 c 0,0 19.25923,3.55344 18.82653,12.52957 l -1.42712,29.60451 c -0.16498,3.42237 -2.57183,7.69035 -5.19878,7.60602 l -47.29873,-1.08657 c -2.62695,-0.0843 -4.5752,-4.18099 -4.6891,-7.60603 l -1.08733,-28.17838 c 0.93728,-10.08196 33.69295,-12.86912 33.69295,-12.86912 z"
         style="font-size:medium;font-style:normal;font-variant:normal;font-weight:normal;font-stretch:normal;text-indent:0;text-align:start;text-decoration:none;line-height:normal;letter-spacing:normal;word-spacing:normal;text-transform:none;direction:ltr;block-progression:tb;writing-mode:lr-tb;text-anchor:start;baseline-shift:baseline;opacity:0.99568936;color:#000000;fill:#000000;fill-opacity:1;stroke:none;stroke-width:5;marker:none;visibility:visible;display:inline;overflow:visible;enable-background:accumulate;font-family:Sans;-inkscape-font-specification:Sans" />
      <g
         transform="matrix(1.0074633,0.03599066,-0.03601558,1.0067662,46.064244,9.0223742)"
         id="g4092">
        <path
           sodipodi:nodetypes="ccssscsssscscsccssccsssssssscscssscsscsscccc"
           inkscape:connector-curvature="0"
           style="fill:#000000;fill-opacity:1"
           d="m 133.27929,209.30806 c -0.19997,-0.74266 -0.64458,-1.6519 -0.98802,-2.02053 -0.34343,-0.36864 -0.62443,-0.77616 -0.62443,-0.9056 0,-0.12944 0.57255,-0.68881 1.27233,-1.24305 2.0569,-1.62909 3.94009,-4.10045 4.3505,-5.70928 l 0.37607,-1.47419 0.87076,0.68493 c 2.23275,1.75629 6.79982,2.15947 9.726,0.85862 2.56002,-1.13807 4.80267,-3.54023 5.47394,-5.86328 0.47669,-1.6497 0.45958,-4.77776 -0.0359,-6.55802 -0.46737,-1.67931 -3.65906,-5.09902 -5.07581,-5.43843 -0.51831,-0.12416 -1.14697,-0.38767 -1.39701,-0.58557 -0.25442,-0.20137 -1.60798,-0.35092 -3.07369,-0.33961 -2.33575,0.018 -2.82905,0.13582 -4.56034,1.08899 -1.0677,0.58783 -2.06252,1.23392 -2.21073,1.43575 -0.1506,0.2051 -0.19254,-0.20389 -0.0951,-0.92722 0.23198,-1.72176 1.83565,-3.14066 4.15205,-3.67368 2.47675,-0.56992 4.30125,-1.54297 5.96082,-3.17904 1.86956,-1.8431 2.90611,-1.85146 2.79876,-0.0226 -0.0457,0.77884 0.0701,1.21247 0.32355,1.2111 0.56779,-0.003 2.13228,-1.08813 2.66451,-1.848 0.25004,-0.35698 0.9053,-0.83574 1.45614,-1.06391 1.30506,-0.54057 1.79443,-0.10382 1.24207,1.10848 -0.33244,0.72963 -0.32119,0.93209 0.0654,1.17668 0.95064,0.60147 3.47769,0.21958 4.1877,-0.63286 0.50887,-0.61094 2.33446,-1.65018 2.89881,-1.65018 0.53419,0 0.6555,0.20071 0.63558,1.05153 -0.0546,2.33206 -1.1916,4.06616 -3.77099,5.75129 l -1.69256,1.10576 1.04547,1.13484 c 0.575,0.62416 1.14741,1.21478 1.27202,1.31248 0.47534,0.3727 1.87362,2.48033 2.50771,3.77987 1.00857,2.06702 1.40986,4.49219 1.22737,7.41738 -0.19422,3.113 -0.92865,4.84539 -3.61905,8.53664 -0.97275,1.33462 -2.57752,3.81784 -2.76918,4.52964 -0.19167,0.7118 -0.46663,1.29419 -0.61102,1.29419 -0.14439,0 -0.84889,-0.42476 -1.56555,-0.9439 -2.98838,-2.16478 -6.15675,-3.25233 -9.49255,-3.25836 -2.87664,-0.005 -5.62069,0.54029 -7.49451,1.48982 -1.54245,0.78162 -1.92967,1.05388 -3.99871,2.81157 l -1.06885,0.90801 -0.36359,-1.35029 0,0 z"
           id="path2998" />
        <path
           inkscape:connector-curvature="0"
           style="fill:#000000;fill-opacity:1"
           d="m 122.9077,200.06073 c -0.67977,-1.75817 -1.02203,-5.14165 -0.87888,-8.68843 0.12474,-3.0908 0.26288,-3.79518 1.04723,-5.33995 1.57815,-3.10815 3.70094,-4.7109 7.23165,-5.46004 2.13526,-0.45306 5.45912,-0.4737 5.72989,-0.0356 0.11157,0.18051 0.0342,1.14041 -0.17185,2.13311 -0.20609,0.9927 -0.39085,3.32013 -0.4106,5.17208 -0.0378,3.54115 -0.15538,3.77581 -1.52511,3.04276 -0.82297,-0.44045 -1.16387,0.16462 -0.64206,1.13962 0.3557,0.66464 0.26413,1.0023 -0.77655,2.86319 -0.64889,1.16033 -1.65036,2.43831 -2.22548,2.83995 -0.57513,0.40165 -1.11849,0.82959 -1.20747,0.95098 -0.30233,0.41251 -3.65286,1.9018 -4.73546,2.10489 -0.96773,0.18155 -1.11426,0.10778 -1.43531,-0.72257 z m 11.28523,-16.23746 c 0.0869,-1.17904 0.0152,-1.34993 -0.56621,-1.34993 -0.55612,0 -0.66569,0.20415 -0.66569,1.24026 0,2.18628 1.07182,2.28169 1.2319,0.10967 z"
           id="path3026" />
        <path
           inkscape:connector-curvature="0"
           style="fill:#000000;fill-opacity:1"
           d="m 132.63497,200.80972 c -2.57828,-0.8623 -2.58785,-0.9121 -0.58954,-3.07052 1.1195,-1.20919 2.02571,-2.56906 2.39339,-3.59155 0.3744,-1.04118 0.70481,-1.53248 0.8996,-1.33768 0.45849,0.45849 0.65904,6.49239 0.25059,7.53929 -0.38619,0.98984 -1.05804,1.09456 -2.95404,0.46046 l 0,0 z"
           id="path3030" />
        <path
           sodipodi:type="arc"
           style="fill:#000000;fill-opacity:1"
           id="path2832"
           sodipodi:cx="327.14285"
           sodipodi:cy="188.07646"
           sodipodi:rx="35.714287"
           sodipodi:ry="27.142857"
           d="m 362.85714,188.07646 c 0,14.99059 -15.98983,27.14286 -35.71429,27.14286 -19.72445,0 -35.71428,-12.15227 -35.71428,-27.14286 0,-14.99058 15.98983,-27.14285 35.71428,-27.14285 19.72446,0 35.71429,12.15227 35.71429,27.14285 z"
           transform="matrix(0.11324112,0,0,0.11324112,104.9743,167.22566)" />
      </g>
      <path
         sodipodi:nodetypes="ssssssssssssssssss"
         inkscape:connector-curvature="0"
         id="rect4098"
         d="m 208.6648,159.44789 c 3.38349,-0.0751 4.85871,2.71082 5.3347,5.96754 l 0.67958,4.64965 c 0.47599,3.25672 -2.62981,6.36923 -6.01428,6.52549 l -49.13359,2.26859 c -3.38447,0.15626 -6.48918,-2.66935 -6.01428,-5.97011 l 0.74754,-5.19575 c 0.4749,-3.30078 2.63079,-7.0955 6.01428,-7.17065 z m 0,5.43287 -48.38605,1.27367 c -0.26456,0.007 -0.49365,0.70403 -0.57765,1.28785 l -0.74753,5.19575 c -0.084,0.5838 0.31303,0.80047 0.57764,0.78826 l 49.13359,-2.26859 c 0.26461,-0.0122 0.57764,-0.25562 0.57764,-0.8416 l 0,-4.68103 c 0,-0.58598 -0.31308,-0.76127 -0.57764,-0.75431 z"
         style="font-size:medium;font-style:normal;font-variant:normal;font-weight:normal;font-stretch:normal;text-indent:0;text-align:start;text-decoration:none;line-height:normal;letter-spacing:normal;word-spacing:normal;text-transform:none;direction:ltr;block-progression:tb;writing-mode:lr-tb;text-anchor:start;baseline-shift:baseline;opacity:0.99568936;color:#000000;fill:#000000;fill-opacity:1;stroke:none;stroke-width:5;marker:none;visibility:visible;display:inline;overflow:visible;enable-background:accumulate;font-family:Sans;-inkscape-font-specification:Sans" />
      <path
         sodipodi:nodetypes="ccccc"
         inkscape:connector-curvature="0"
         id="path4102"
         d="m 166.74616,162.15858 2.14067,0.23769 0.13592,14.60085 -2.85424,-0.23769 z"
         style="font-size:medium;font-style:normal;font-variant:normal;font-weight:normal;font-stretch:normal;text-indent:0;text-align:start;text-decoration:none;line-height:normal;letter-spacing:normal;word-spacing:normal;text-transform:none;direction:ltr;block-progression:tb;writing-mode:lr-tb;text-anchor:start;baseline-shift:baseline;color:#000000;fill:#000000;fill-opacity:1;stroke:none;stroke-width:2;marker:none;visibility:visible;display:inline;overflow:visible;enable-background:accumulate;font-family:Sans;-inkscape-font-specification:Sans" />
      <path
         sodipodi:nodetypes="ccccc"
         inkscape:connector-curvature="0"
         id="path4104"
         d="m 179.59021,162.19254 0.27183,14.60084 -2.17465,0.16978 -0.95142,-14.60085 z"
         style="font-size:medium;font-style:normal;font-variant:normal;font-weight:normal;font-stretch:normal;text-indent:0;text-align:start;text-decoration:none;line-height:normal;letter-spacing:normal;word-spacing:normal;text-transform:none;direction:ltr;block-progression:tb;writing-mode:lr-tb;text-anchor:start;baseline-shift:baseline;color:#000000;fill:#000000;fill-opacity:1;stroke:none;stroke-width:2;marker:none;visibility:visible;display:inline;overflow:visible;enable-background:accumulate;font-family:Sans;-inkscape-font-specification:Sans" />
      <path
         sodipodi:nodetypes="ccccc"
         inkscape:connector-curvature="0"
         id="path4106"
         d="m 188.90045,162.19254 2.14067,0.16977 -0.40775,14.60085 -2.82025,-0.16978 z"
         style="font-size:medium;font-style:normal;font-variant:normal;font-weight:normal;font-stretch:normal;text-indent:0;text-align:start;text-decoration:none;line-height:normal;letter-spacing:normal;word-spacing:normal;text-transform:none;direction:ltr;block-progression:tb;writing-mode:lr-tb;text-anchor:start;baseline-shift:baseline;color:#000000;fill:#000000;fill-opacity:1;stroke:none;stroke-width:2;marker:none;visibility:visible;display:inline;overflow:visible;enable-background:accumulate;font-family:Sans;-inkscape-font-specification:Sans" />
      <path
         sodipodi:nodetypes="ccccc"
         inkscape:connector-curvature="0"
         id="path4108"
         d="m 201.16686,162.43022 0.80457,13.35085 -2.17465,0.10181 -1.21233,-13.35084 z"
         style="font-size:medium;font-style:normal;font-variant:normal;font-weight:normal;font-stretch:normal;text-indent:0;text-align:start;text-decoration:none;line-height:normal;letter-spacing:normal;word-spacing:normal;text-transform:none;direction:ltr;block-progression:tb;writing-mode:lr-tb;text-anchor:start;baseline-shift:baseline;color:#000000;fill:#000000;fill-opacity:1;stroke:none;stroke-width:2;marker:none;visibility:visible;display:inline;overflow:visible;enable-background:accumulate;font-family:Sans;-inkscape-font-specification:Sans" />
      <path
         inkscape:connector-curvature="0"
         id="path4114"
         d="m 164.05745,174.83404 -4.18472,1.60882 0.60846,2.74637 c 0.12215,0.54396 0.11683,1.08389 -0.0248,1.62507 l -0.7078,2.71387 4.13506,1.85258 0.7078,-2.69762 c 0.43067,-1.64515 0.4616,-3.43424 0.0869,-5.10272 l -0.62088,-2.74637 z"
         style="font-size:medium;font-style:normal;font-variant:normal;font-weight:normal;font-stretch:normal;text-indent:0;text-align:start;text-decoration:none;line-height:normal;letter-spacing:normal;word-spacing:normal;text-transform:none;direction:ltr;block-progression:tb;writing-mode:lr-tb;text-anchor:start;baseline-shift:baseline;opacity:0.99568936;color:#000000;fill:#000000;fill-opacity:1;stroke:none;stroke-width:10.99930286;marker:none;visibility:visible;display:inline;overflow:visible;enable-background:accumulate;font-family:Sans;-inkscape-font-specification:Sans" />
      <path
         inkscape:connector-curvature="0"
         id="path4135"
         d="m 205.3906,173.05296 4.02262,2.99215 -1.12322,2.27607 c -0.35088,0.70598 -0.37176,1.42858 -0.14265,2.11088 l 0.86297,2.59319 -4.27803,1.66351 -0.86297,-2.5932 c -0.76581,-2.28062 -0.59524,-4.76799 0.39806,-6.76652 l 1.12322,-2.27608 z"
         style="font-size:medium;font-style:normal;font-variant:normal;font-weight:normal;font-stretch:normal;text-indent:0;text-align:start;text-decoration:none;line-height:normal;letter-spacing:normal;word-spacing:normal;text-transform:none;direction:ltr;block-progression:tb;writing-mode:lr-tb;text-anchor:start;baseline-shift:baseline;opacity:0.99568936;color:#000000;fill:#000000;fill-opacity:1;stroke:none;stroke-width:11.50847721;marker:none;visibility:visible;display:inline;overflow:visible;enable-background:accumulate;font-family:Sans;-inkscape-font-specification:Sans" />
    </g>
    <rect
       style="fill:#000000;fill-opacity:1;stroke:none"
       id="rect4203"
       width="700"
       height="300"
       x="22.531963"
       y="321.215"
       inkscape:export-filename="/Users/hbons/Desktop/guacamayo-logo.png"
       inkscape:export-xdpi="90"
       inkscape:export-ydpi="90" />
    <g
       id="g4240"
       transform="translate(24.644937,76.98314)">
      <flowRoot
         xml:space="preserve"
         id="flowRoot4169"
         style="font-size:40px;font-style:normal;font-variant:normal;font-weight:normal;font-stretch:normal;line-height:125%;letter-spacing:0px;word-spacing:0px;fill:#ffffff;fill-opacity:1;stroke:none;font-family:Londrina Solid;-inkscape-font-specification:Londrina Solid"
         transform="matrix(1.9308552,0,0,1.9308552,62.617149,-142.60719)"><flowRegion
           id="flowRegion4171"><rect
             id="rect4173"
             width="657.14288"
             height="242.85715"
             x="85.714287"
             y="252.36218"
             style="font-style:normal;font-variant:normal;font-weight:normal;font-stretch:normal;fill:#ffffff;fill-opacity:1;font-family:Londrina Solid;-inkscape-font-specification:Londrina Solid" /></flowRegion><flowPara
           id="flowPara4175">GUACAMAYO</flowPara></flowRoot>      <path
         style="font-size:medium;font-style:normal;font-variant:normal;font-weight:normal;font-stretch:normal;text-indent:0;text-align:start;text-decoration:none;line-height:normal;letter-spacing:normal;word-spacing:normal;text-transform:none;direction:ltr;block-progression:tb;writing-mode:lr-tb;text-anchor:start;baseline-shift:baseline;opacity:0.99568936;color:#000000;fill:#ffffff;fill-opacity:1;stroke:none;stroke-width:5;marker:none;visibility:visible;display:inline;overflow:visible;enable-background:accumulate;font-family:Sans;-inkscape-font-specification:Sans"
         d="m 160.32257,378.0141 c -5.41261,0 -9.74058,5.80766 -9.8539,12.86912 l -0.57764,30.48735 c -0.11333,7.06148 5.01893,11.64673 10.43154,11.64673 l 47.80841,0 c 5.41261,0 9.72032,-5.80818 9.85391,-12.86912 l 0.6456,-30.4534 c 0.13359,-7.06094 -5.0869,-11.68068 -10.49951,-11.68068 l -12.71031,0 c 0,0 19.25923,3.55344 18.82653,12.52957 l -1.42712,29.60451 c -0.16498,3.42237 -2.57183,7.69035 -5.19878,7.60602 l -47.29873,-1.08657 c -2.62695,-0.0843 -4.5752,-4.18099 -4.6891,-7.60603 l -1.08733,-28.17838 c 0.93728,-10.08196 33.69295,-12.86912 33.69295,-12.86912 z"
         id="path4177"
         inkscape:connector-curvature="0"
         sodipodi:nodetypes="sccssccscsscccccs" />
      <g
         style="fill:#ffffff;fill-opacity:1"
         id="g4179"
         transform="matrix(1.0074633,0.03599066,-0.03601558,1.0067662,46.064244,205.02237)">
        <path
           id="path4181"
           d="m 133.27929,209.30806 c -0.19997,-0.74266 -0.64458,-1.6519 -0.98802,-2.02053 -0.34343,-0.36864 -0.62443,-0.77616 -0.62443,-0.9056 0,-0.12944 0.57255,-0.68881 1.27233,-1.24305 2.0569,-1.62909 3.94009,-4.10045 4.3505,-5.70928 l 0.37607,-1.47419 0.87076,0.68493 c 2.23275,1.75629 6.79982,2.15947 9.726,0.85862 2.56002,-1.13807 4.80267,-3.54023 5.47394,-5.86328 0.47669,-1.6497 0.45958,-4.77776 -0.0359,-6.55802 -0.46737,-1.67931 -3.65906,-5.09902 -5.07581,-5.43843 -0.51831,-0.12416 -1.14697,-0.38767 -1.39701,-0.58557 -0.25442,-0.20137 -1.60798,-0.35092 -3.07369,-0.33961 -2.33575,0.018 -2.82905,0.13582 -4.56034,1.08899 -1.0677,0.58783 -2.06252,1.23392 -2.21073,1.43575 -0.1506,0.2051 -0.19254,-0.20389 -0.0951,-0.92722 0.23198,-1.72176 1.83565,-3.14066 4.15205,-3.67368 2.47675,-0.56992 4.30125,-1.54297 5.96082,-3.17904 1.86956,-1.8431 2.90611,-1.85146 2.79876,-0.0226 -0.0457,0.77884 0.0701,1.21247 0.32355,1.2111 0.56779,-0.003 2.13228,-1.08813 2.66451,-1.848 0.25004,-0.35698 0.9053,-0.83574 1.45614,-1.06391 1.30506,-0.54057 1.79443,-0.10382 1.24207,1.10848 -0.33244,0.72963 -0.32119,0.93209 0.0654,1.17668 0.95064,0.60147 3.47769,0.21958 4.1877,-0.63286 0.50887,-0.61094 2.33446,-1.65018 2.89881,-1.65018 0.53419,0 0.6555,0.20071 0.63558,1.05153 -0.0546,2.33206 -1.1916,4.06616 -3.77099,5.75129 l -1.69256,1.10576 1.04547,1.13484 c 0.575,0.62416 1.14741,1.21478 1.27202,1.31248 0.47534,0.3727 1.87362,2.48033 2.50771,3.77987 1.00857,2.06702 1.40986,4.49219 1.22737,7.41738 -0.19422,3.113 -0.92865,4.84539 -3.61905,8.53664 -0.97275,1.33462 -2.57752,3.81784 -2.76918,4.52964 -0.19167,0.7118 -0.46663,1.29419 -0.61102,1.29419 -0.14439,0 -0.84889,-0.42476 -1.56555,-0.9439 -2.98838,-2.16478 -6.15675,-3.25233 -9.49255,-3.25836 -2.87664,-0.005 -5.62069,0.54029 -7.49451,1.48982 -1.54245,0.78162 -1.92967,1.05388 -3.99871,2.81157 l -1.06885,0.90801 -0.36359,-1.35029 0,0 z"
           style="fill:#ffffff;fill-opacity:1"
           inkscape:connector-curvature="0"
           sodipodi:nodetypes="ccssscsssscscsccssccsssssssscscssscsscsscccc" />
        <path
           id="path4183"
           d="m 122.9077,200.06073 c -0.67977,-1.75817 -1.02203,-5.14165 -0.87888,-8.68843 0.12474,-3.0908 0.26288,-3.79518 1.04723,-5.33995 1.57815,-3.10815 3.70094,-4.7109 7.23165,-5.46004 2.13526,-0.45306 5.45912,-0.4737 5.72989,-0.0356 0.11157,0.18051 0.0342,1.14041 -0.17185,2.13311 -0.20609,0.9927 -0.39085,3.32013 -0.4106,5.17208 -0.0378,3.54115 -0.15538,3.77581 -1.52511,3.04276 -0.82297,-0.44045 -1.16387,0.16462 -0.64206,1.13962 0.3557,0.66464 0.26413,1.0023 -0.77655,2.86319 -0.64889,1.16033 -1.65036,2.43831 -2.22548,2.83995 -0.57513,0.40165 -1.11849,0.82959 -1.20747,0.95098 -0.30233,0.41251 -3.65286,1.9018 -4.73546,2.10489 -0.96773,0.18155 -1.11426,0.10778 -1.43531,-0.72257 z m 11.28523,-16.23746 c 0.0869,-1.17904 0.0152,-1.34993 -0.56621,-1.34993 -0.55612,0 -0.66569,0.20415 -0.66569,1.24026 0,2.18628 1.07182,2.28169 1.2319,0.10967 z"
           style="fill:#ffffff;fill-opacity:1"
           inkscape:connector-curvature="0" />
        <path
           id="path4185"
           d="m 132.63497,200.80972 c -2.57828,-0.8623 -2.58785,-0.9121 -0.58954,-3.07052 1.1195,-1.20919 2.02571,-2.56906 2.39339,-3.59155 0.3744,-1.04118 0.70481,-1.53248 0.8996,-1.33768 0.45849,0.45849 0.65904,6.49239 0.25059,7.53929 -0.38619,0.98984 -1.05804,1.09456 -2.95404,0.46046 l 0,0 z"
           style="fill:#ffffff;fill-opacity:1"
           inkscape:connector-curvature="0" />
        <path
           transform="matrix(0.11324112,0,0,0.11324112,104.9743,167.22566)"
           d="m 362.85714,188.07646 c 0,14.99059 -15.98983,27.14286 -35.71429,27.14286 -19.72445,0 -35.71428,-12.15227 -35.71428,-27.14286 0,-14.99058 15.98983,-27.14285 35.71428,-27.14285 19.72446,0 35.71429,12.15227 35.71429,27.14285 z"
           sodipodi:ry="27.142857"
           sodipodi:rx="35.714287"
           sodipodi:cy="188.07646"
           sodipodi:cx="327.14285"
           id="path4187"
           style="fill:#ffffff;fill-opacity:1"
           sodipodi:type="arc" />
      </g>
      <path
         style="font-size:medium;font-style:normal;font-variant:normal;font-weight:normal;font-stretch:normal;text-indent:0;text-align:start;text-decoration:none;line-height:normal;letter-spacing:normal;word-spacing:normal;text-transform:none;direction:ltr;block-progression:tb;writing-mode:lr-tb;text-anchor:start;baseline-shift:baseline;opacity:0.99568936;color:#000000;fill:#ffffff;fill-opacity:1;stroke:none;stroke-width:5;marker:none;visibility:visible;display:inline;overflow:visible;enable-background:accumulate;font-family:Sans;-inkscape-font-specification:Sans"
         d="m 208.6648,355.44789 c 3.38349,-0.0751 4.85871,2.71082 5.3347,5.96754 l 0.67958,4.64965 c 0.47599,3.25672 -2.62981,6.36923 -6.01428,6.52549 l -49.13359,2.26859 c -3.38447,0.15626 -6.48918,-2.66935 -6.01428,-5.97011 l 0.74754,-5.19575 c 0.4749,-3.30078 2.63079,-7.0955 6.01428,-7.17065 z m 0,5.43287 -48.38605,1.27367 c -0.26456,0.007 -0.49365,0.70403 -0.57765,1.28785 l -0.74753,5.19575 c -0.084,0.5838 0.31303,0.80047 0.57764,0.78826 l 49.13359,-2.26859 c 0.26461,-0.0122 0.57764,-0.25562 0.57764,-0.8416 l 0,-4.68103 c 0,-0.58598 -0.31308,-0.76127 -0.57764,-0.75431 z"
         id="path4189"
         inkscape:connector-curvature="0"
         sodipodi:nodetypes="ssssssssssssssssss" />
      <path
         style="font-size:medium;font-style:normal;font-variant:normal;font-weight:normal;font-stretch:normal;text-indent:0;text-align:start;text-decoration:none;line-height:normal;letter-spacing:normal;word-spacing:normal;text-transform:none;direction:ltr;block-progression:tb;writing-mode:lr-tb;text-anchor:start;baseline-shift:baseline;color:#000000;fill:#ffffff;fill-opacity:1;stroke:none;stroke-width:2;marker:none;visibility:visible;display:inline;overflow:visible;enable-background:accumulate;font-family:Sans;-inkscape-font-specification:Sans"
         d="m 166.74616,358.15858 2.14067,0.23769 0.13592,14.60085 -2.85424,-0.23769 z"
         id="path4191"
         inkscape:connector-curvature="0"
         sodipodi:nodetypes="ccccc" />
      <path
         style="font-size:medium;font-style:normal;font-variant:normal;font-weight:normal;font-stretch:normal;text-indent:0;text-align:start;text-decoration:none;line-height:normal;letter-spacing:normal;word-spacing:normal;text-transform:none;direction:ltr;block-progression:tb;writing-mode:lr-tb;text-anchor:start;baseline-shift:baseline;color:#000000;fill:#ffffff;fill-opacity:1;stroke:none;stroke-width:2;marker:none;visibility:visible;display:inline;overflow:visible;enable-background:accumulate;font-family:Sans;-inkscape-font-specification:Sans"
         d="m 179.59021,358.19254 0.27183,14.60084 -2.17465,0.16978 -0.95142,-14.60085 z"
         id="path4193"
         inkscape:connector-curvature="0"
         sodipodi:nodetypes="ccccc" />
      <path
         style="font-size:medium;font-style:normal;font-variant:normal;font-weight:normal;font-stretch:normal;text-indent:0;text-align:start;text-decoration:none;line-height:normal;letter-spacing:normal;word-spacing:normal;text-transform:none;direction:ltr;block-progression:tb;writing-mode:lr-tb;text-anchor:start;baseline-shift:baseline;color:#000000;fill:#ffffff;fill-opacity:1;stroke:none;stroke-width:2;marker:none;visibility:visible;display:inline;overflow:visible;enable-background:accumulate;font-family:Sans;-inkscape-font-specification:Sans"
         d="m 188.90045,358.19254 2.14067,0.16977 -0.40775,14.60085 -2.82025,-0.16978 z"
         id="path4195"
         inkscape:connector-curvature="0"
         sodipodi:nodetypes="ccccc" />
      <path
         style="font-size:medium;font-style:normal;font-variant:normal;font-weight:normal;font-stretch:normal;text-indent:0;text-align:start;text-decoration:none;line-height:normal;letter-spacing:normal;word-spacing:normal;text-transform:none;direction:ltr;block-progression:tb;writing-mode:lr-tb;text-anchor:start;baseline-shift:baseline;color:#000000;fill:#ffffff;fill-opacity:1;stroke:none;stroke-width:2;marker:none;visibility:visible;display:inline;overflow:visible;enable-background:accumulate;font-family:Sans;-inkscape-font-specification:Sans"
         d="m 201.16686,358.43022 0.80457,13.35085 -2.17465,0.10181 -1.21233,-13.35084 z"
         id="path4197"
         inkscape:connector-curvature="0"
         sodipodi:nodetypes="ccccc" />
      <path
         inkscape:connector-curvature="0"
         id="path4199"
         d="m 164.05745,370.83404 -4.18472,1.60882 0.60846,2.74637 c 0.12215,0.54396 0.11683,1.0839 -0.0248,1.62507 l -0.7078,2.71387 4.13506,1.85258 0.7078,-2.69762 c 0.43067,-1.64514 0.4616,-3.43424 0.0869,-5.10272 l -0.62088,-2.74637 z"
         style="font-size:medium;font-style:normal;font-variant:normal;font-weight:normal;font-stretch:normal;text-indent:0;text-align:start;text-decoration:none;line-height:normal;letter-spacing:normal;word-spacing:normal;text-transform:none;direction:ltr;block-progression:tb;writing-mode:lr-tb;text-anchor:start;baseline-shift:baseline;opacity:0.99568936;color:#000000;fill:#ffffff;fill-opacity:1;stroke:none;stroke-width:10.99930286;marker:none;visibility:visible;display:inline;overflow:visible;enable-background:accumulate;font-family:Sans;-inkscape-font-specification:Sans" />
      <path
         inkscape:connector-curvature="0"
         id="path4201"
         d="m 205.3906,369.05296 4.02262,2.99215 -1.12322,2.27608 c -0.35088,0.70597 -0.37176,1.42857 -0.14265,2.11087 l 0.86297,2.59319 -4.27803,1.66351 -0.86297,-2.5932 c -0.76581,-2.28062 -0.59524,-4.76799 0.39806,-6.76652 l 1.12322,-2.27608 z"
         style="font-size:medium;font-style:normal;font-variant:normal;font-weight:normal;font-stretch:normal;text-indent:0;text-align:start;text-decoration:none;line-height:normal;letter-spacing:normal;word-spacing:normal;text-transform:none;direction:ltr;block-progression:tb;writing-mode:lr-tb;text-anchor:start;baseline-shift:baseline;opacity:0.99568936;color:#000000;fill:#ffffff;fill-opacity:1;stroke:none;stroke-width:11.50847721;marker:none;visibility:visible;display:inline;overflow:visible;enable-background:accumulate;font-family:Sans;-inkscape-font-specification:Sans" />
    </g>
  </g>
</svg>
